<?xml version="1.0" standalone="no"?>
<!DOCTYPE svg PUBLIC "-//W3C//DTD SVG 20010904//EN"
 "http://www.w3.org/TR/2001/REC-SVG-20010904/DTD/svg10.dtd">
<svg version="1.0" xmlns="http://www.w3.org/2000/svg"
 width="300.000000pt" height="300.000000pt" viewBox="0 0 300.000000 300.000000"
 preserveAspectRatio="xMidYMid meet">
<metadata>
Created by potrace 1.10, written by Peter Selinger 2001-2011
</metadata>
<g transform="translate(0.000000,300.000000) scale(0.050000,-0.050000)"
fill="#0B9684" stroke="none">
<path d="M2640 5449 c-38 -16 -569 -212 -1180 -437 l-1110 -408 0 -1486 0
-1486 400 -174 c1631 -710 1984 -861 2010 -862 17 -1 93 34 170 78 77 43 200
112 274 153 132 73 133 74 113 133 -27 76 -6 82 -297 -80 l-250 -139 -5 1373
c-3 756 2 1380 10 1388 25 23 1193 538 1220 538 17 0 25 -39 25 -130 0 -71 5
-130 10 -130 6 0 69 26 140 58 l128 59 6 146 6 146 410 184 c226 101 417 185
425 186 8 0 15 -294 15 -655 l0 -656 59 -44 c33 -24 64 -44 70 -44 6 0 11 359
11 797 l0 797 -605 174 c-333 97 -690 201 -795 232 -1052 313 -1148 335 -1260
289z m382 -177 c232 -70 982 -287 1218 -353 470 -130 800 -229 800 -240 0 -17
-813 -379 -851 -379 -26 0 -680 225 -1659 570 -165 58 -352 122 -415 143 -153
50 -164 41 250 192 433 157 376 151 657 67z m-354 -674 c529 -187 1018 -360
1087 -383 69 -24 125 -48 125 -54 0 -6 -260 -126 -578 -267 l-578 -256 -847
342 c-466 188 -953 384 -1082 435 -129 52 -228 100 -220 108 8 7 109 50 225
94 116 45 350 135 520 201 171 65 327 120 348 121 22 0 472 -153 1000 -341z"/>
<path d="M4410 3193 c-299 -99 -491 -312 -554 -615 l-23 -114 -120 -8 c-103
-8 -126 -17 -176 -73 l-57 -64 0 -661 0 -661 58 -59 59 -58 1033 0 1033 0 59
58 58 59 0 657 c0 786 -7 806 -287 806 l-87 0 -12 109 c-44 430 -568 762 -984
624z m448 -302 c144 -73 244 -204 273 -357 l13 -74 -514 0 -514 0 13 74 c62
328 431 508 729 357z m-27 -621 c182 -106 220 -339 80 -490 -25 -27 -51 -73
-58 -102 -32 -135 -394 -135 -426 0 -7 29 -33 75 -58 102 -262 284 121 690
462 490z m-427 -698 l242 -129 247 123 c264 132 317 137 317 32 0 -40 -29 -63
-173 -138 -96 -49 -180 -96 -187 -104 -8 -7 57 -49 144 -93 171 -86 213 -122
203 -175 -17 -87 -66 -79 -314 49 l-241 124 -243 -121 c-276 -139 -349 -149
-349 -50 0 56 14 67 195 159 236 119 235 100 6 217 -192 98 -238 147 -190 205
40 49 92 34 343 -99z"/>
<path d="M4451 2009 c-64 -65 12 -170 92 -127 49 26 48 111 -2 137 -50 27 -52
27 -90 -10z"/>
<path d="M4733 2003 c-44 -48 -42 -75 10 -111 55 -38 117 -9 117 55 0 88 -70
119 -127 56z"/>
</g>
</svg>
